<svg xmlns="http://www.w3.org/2000/svg" width="694" height="503"><path d="M104.88 357.76c-4.5 4.53-8.34 8.24-8.53 8.24-1.92 0 11.17-34.24 23.29-60.92 20.52-45.18 50.9-96.16 75.14-126.08 3.31-4.09 2.49-3.45-3.19 2.5-24.24 25.35-52.04 66.84-74.19 110.75-5.2 10.31-9.65 18.75-9.88 18.75-.24 0-1.66-3.71-3.15-8.25-2.36-7.16-2.73-9.91-2.77-20.75-.04-13.65 1.18-19.75 6.58-32.75 3.17-7.63 4.82-9.14 4.82-4.41 0 2.59 5.76 15.73 6.55 14.94.19-.18-.07-2.12-.58-4.31-1.46-6.27-1.13-20.27.62-26.49 1.98-7.08 12.98-23.56 23.91-35.84 4.4-4.95 8.27-9.03 8.6-9.07.33-.04.38 4.5.11 10.08-.36 7.44-.19 9.95.65 9.44.63-.39 1.14-1.76 1.14-3.04 0-3.35 3.8-15.2 6.72-20.97 4.96-9.8 16.17-18.79 37.37-29.95 9.52-5.01 29.13-12.63 32.51-12.63 1.85 0 1.83 5.64-.1 20.33-1.71 13.02-5.3 26.38-9.15 33.97-3.63 7.16-14.29 17.47-23.83 23.04-4.39 2.56-7.47 4.66-6.85 4.66 2.5 0 14.11-4.15 18.19-6.5l4.36-2.51-.65 2.59c-.85 3.39-8.34 20.21-14.88 33.41-4.14 8.38-6.6 11.9-12.19 17.5-7.75 7.76-14.57 12.14-26.82 17.25l-8.18 3.4 7-.49c3.85-.27 10.04-1.6 13.75-2.95 3.71-1.35 6.75-2.23 6.75-1.95 0 .27-2.04 3.36-4.54 6.86-8.62 12.08-26.44 24.89-41.69 29.97-6.94 2.31-8.03 3.02-9.68 6.26-1.88 3.72-6.18 16.38-8.02 23.67-.76 2.99-3.08 6.09-9.19 12.25zm417.58-56.67c-11.53 5.68-27.73 4.85-38.78-1.98-9.03-5.58-15.71-17.22-16.46-28.69-1.69-25.86 15.85-43.83 41.19-42.21 21.41 1.38 35.91 18.74 34.34 41.14-1.02 14.58-8.18 25.78-20.29 31.74zM323.5 289.5v14l-68.5.53V201h67v15h-51v28h42.09l-.3 7.25-.29 7.25-41.5.54v29.93zm79.52-8.75L403 304h-16V200.92l7.75.29 7.75.29.27 18.44c.25 16.96.4 18.26 1.82 16.23.85-1.21 3.88-3.43 6.73-4.93 4.52-2.38 6.32-2.72 14.18-2.72 7.85 0 9.66.34 14.15 2.7 2.83 1.49 6.5 4.35 8.14 6.35 5.52 6.69 6.27 11.3 6.5 40.02l.21 25.91h-16l-.51-25c-.54-25.98-.91-28.31-5.13-32.13-9.09-8.19-22.45-4.78-27.96 7.13-1.64 3.53-1.86 6.76-1.88 27.25zm194.48 22.89c-20.01 5.34-43.61-5.33-43.91-19.85l-.09-4.29h7.5c7.24 0 7.51.09 7.84 2.5.43 3.21 3.79 6.89 7.88 8.63 3.88 1.65 15.56 1.81 18.6.25 6.02-3.11 8.07-7.42 5.65-11.94-1.66-3.1-5.81-4.64-16.99-6.3-22.66-3.37-29.59-8.82-28.81-22.65.52-9.26 3.56-13.75 12.19-18 12.5-6.15 29.44-5.03 39.97 2.63 5.08 3.7 8.61 9.67 8.65 14.63L616 252h-7.5c-5.67 0-7.5-.33-7.5-1.37 0-2.43-4.24-6.84-8.42-8.73-5.24-2.38-10.98-2.36-16.33.07-5.27 2.4-7.04 5.71-5.3 9.91 1.58 3.82 5.88 5.83 15.17 7.1 10.27 1.41 16.78 2.99 20.88 5.06 12.49 6.33 14.71 21.36 4.7 31.8-3.84 4-7.52 6.02-14.2 7.8zM376 290v14l-10.25-.02c-9.25-.02-10.74-.29-15.25-2.75-3.69-2.02-5.59-3.9-7.25-7.19-2.14-4.25-2.25-5.59-2.25-27.75V243h-13v-14h13v-22.08l7.75.29 7.75.29.28 10.75.29 10.75h18.02l-.59 13.5-8.75.29-8.75.29v23.18c0 14.95-.01 20.49 2.67 22.54 1.57 1.21 4.08 1.21 8.05 1.2h.78zm120.5-.9c2.2 1.02 5.93 1.87 8.28 1.88 12.59.06 21.21-9.91 21.19-24.48-.03-14.64-8.46-24.5-20.96-24.5-12.93 0-21.19 9.47-21.29 24.41-.07 11.36 4.02 18.62 12.78 22.69z" fill="#F0EDE6"/></svg>