<svg xmlns="http://www.w3.org/2000/svg" width="358" height="358"><path d="M111.65 298.75c-7.94 8.15-10.65 10.39-10.65 8.8 0-1.88 11.23-31.76 18.07-48.05 9.93-23.67 33.97-71.87 46.39-93 16.85-28.68 36.53-57.95 49.43-73.5 2.06-2.47 4.08-5.18 4.51-6 1.86-3.64-24.41 26.54-33.52 38.5-19.32 25.39-45.3 68.33-64.43 106.5l-6.76 13.5-1.49-3.5c-2.77-6.5-5.28-17.46-5.88-25.59-.99-13.41 2.59-31.12 9.26-45.91l2.7-6 1.66 6.5c2.72 10.63 7.92 18.71 6.33 9.82-1.38-7.7-.83-23.89 1.02-29.99 2.31-7.62 15-26.59 27.15-40.58 5.38-6.19 9.92-11.25 10.11-11.25.19 0 .09 4.61-.21 10.25-.62 11.75.88 19.07 1.98 9.66.79-6.68 4.61-18.15 8.38-25.15 5.78-10.74 20.08-22.32 41.61-33.71 9.88-5.22 30.22-13.61 35.66-14.69l3.33-.67-.7 11.21c-1.28 20.07-5.36 39.75-10.27 49.43-3.42 6.76-9.09 14.32-14.15 18.89-3.71 3.35-6.53 5.32-18.18 12.72l-3.5 2.22 4.5-.62c2.48-.35 8.1-2.37 12.5-4.5s8.09-3.78 8.2-3.67c.57.56-8.78 22.14-15.66 36.13-11.34 23.04-19.89 31.62-41.23 41.37-1.01.46-1.95.89-2.82 1.28-6.36 2.9-8.98 4.1-8.86 4.49.08.27 1.5.16 3.91-.04.47-.04.98-.08 1.53-.13 7.58-.6 14.29-2.31 19.42-4.97 1.76-.9 3.43-1.41 3.72-1.12 1.03 1.03-8.6 13.27-15.73 20-11.08 10.45-25.92 19.39-38.48 23.19-3.3 1-6.55 2.22-7.21 2.71-1.69 1.25-6.67 14.48-9.91 26.32l-2.72 9.9z" fill="#F0EDE6"/></svg>